<svg id="Layer_1" data-name="Layer 1" xmlns="http://www.w3.org/2000/svg" xmlns:xlink="http://www.w3.org/1999/xlink" viewBox="0 0 902.57 748.96"><defs><style>.cls-1{fill:#3f3d56;}.cls-2{fill:#fff;}.cls-3{fill:#e6e8ec;}.cls-4{fill:#0081ff;}.cls-5{fill:url(#linear-gradient);}.cls-6{fill:#feb9b9;}.cls-7{fill:#2f2e41;}.cls-8{opacity:0.1;isolation:isolate;}.cls-9{fill:#efefef;}.cls-10{fill:#ff9b71;}</style><linearGradient id="linear-gradient" x1="-25.79" y1="835.01" x2="-25.79" y2="836.02" gradientTransform="matrix(1.22, 0, 0, -0.29, 240.71, 624.65)" gradientUnits="userSpaceOnUse"><stop offset="0" stop-color="gray" stop-opacity="0.25"/><stop offset="0.54" stop-color="gray" stop-opacity="0.12"/><stop offset="1" stop-color="gray" stop-opacity="0.1"/></linearGradient></defs><title>Artboard 1</title><g id="Group_22" data-name="Group 22"><g id="Group_2" data-name="Group 2"><rect id="Rectangle_76" data-name="Rectangle 76" class="cls-1" x="636.09" y="169.56" width="10.99" height="90.6" rx="2.29" ry="2.29"/><rect id="Rectangle_80" data-name="Rectangle 80" class="cls-1" x="274.25" width="367.78" height="747.46" rx="38.99" ry="38.99"/><path id="Path_176" data-name="Path 176" class="cls-2" d="M590.84,19.47H548.65v5.07a24,24,0,0,1-24,24H390.42a24,24,0,0,1-24.06-24h0V19.47h-39.5a29.21,29.21,0,0,0-29.21,29.21V698.83A29.21,29.21,0,0,0,326.86,728h264A29.21,29.21,0,0,0,620,698.83V48.73a29.21,29.21,0,0,0-29.16-29.26Z"/><rect id="Rectangle_81" data-name="Rectangle 81" class="cls-3" x="422.66" y="22.32" width="51.36" height="10.42" rx="3.87" ry="3.87"/><circle id="Ellipse_5" data-name="Ellipse 5" class="cls-3" cx="487.71" cy="27.53" r="5.92"/><circle id="Ellipse_11" data-name="Ellipse 11" class="cls-2" cx="460.38" cy="382.9" r="69.57"/><path id="Path_222" data-name="Path 222" class="cls-4" d="M551.89,373.19a93,93,0,1,1-93-93,93,93,0,0,1,93,93ZM448.16,422.41l69-69a6,6,0,0,0,0-8.48h0l-8.49-8.42a6,6,0,0,0-8.46,0l0,0-56.26,56.26-26.27-26.33a6,6,0,0,0-8.49,0L400.67,375a6,6,0,0,0,0,8.49l39,39a6,6,0,0,0,8.48,0h0Z"/></g><g id="Group_1" data-name="Group 1"><rect id="Rectangle_77" data-name="Rectangle 77" class="cls-1" x="282.51" y="147.36" width="5.54" height="26.81" rx="2.29" ry="2.29"/><rect id="Rectangle_78" data-name="Rectangle 78" class="cls-1" x="282.31" y="196.45" width="6.25" height="46.67" rx="2.29" ry="2.29"/><rect id="Rectangle_79" data-name="Rectangle 79" class="cls-1" x="282.41" y="259.45" width="5.95" height="47.07" rx="2.29" ry="2.29"/><path id="Path_190" data-name="Path 190" class="cls-5" d="M208.74,383.91a1,1,0,0,0,1.22.16A4.3,4.3,0,0,1,208.74,383.91Z"/><path id="Path_192" data-name="Path 192" class="cls-6" d="M254.7,401.89l-1.2,6.54-.93,5-1.68,9.15L234.57,434s-1.47-1.26-3.9-3.25C224,425.25,209.91,414,199.58,408a34.79,34.79,0,0,0-8.54-3.94Z"/><path id="Path_194" data-name="Path 194" class="cls-1" d="M242.73,406.75s19,3.27,20.15-4.86-9.8-12.52-19-13.07-64.77,3.27-64.77,3.27-9.79,13.06,25.58,15.25Z"/><rect id="Rectangle_82" data-name="Rectangle 82" class="cls-7" x="184.76" y="138.44" width="99.6" height="118.1"/><rect id="Rectangle_83" data-name="Rectangle 83" class="cls-8" x="184.76" y="138.98" width="99.6" height="118.1"/><path id="Path_198" data-name="Path 198" class="cls-6" d="M68,340.62c-1.64.41-3.74,2-6.07,4.29-10,9.94-24.42,33.26-24.42,33.26-18.38-21.9,2-39.19,10.63-45.14,2.11-1.44,3.52-2.23,3.52-2.23Z"/><path id="Path_199" data-name="Path 199" class="cls-6" d="M253.61,175.72s4.9,34.29,21.77,42.45-21.77,23.42-21.77,23.42L200.82,222s29.94-9.8,23.95-38.65Z"/><path id="Path_200" data-name="Path 200" class="cls-6" d="M197,382l-1.19,6.51-1,5-1.68,9.15-16.33,11.42s-1.47-1.25-3.9-3.23c-6.69-5.51-20.76-16.73-31.1-22.75a34.57,34.57,0,0,0-8.54-3.94Z"/><path id="Path_202" data-name="Path 202" class="cls-7" d="M182.88,390s17.09.12,18.11-8-9.31-12.52-18.11-13.07-62.29,3.52-62.29,3.52S113,387.84,146.65,390Z"/><path id="Path_204" data-name="Path 204" class="cls-1" d="M302.69,518.12,300.46,517l-2-2.53-26.33-33.39v.58c-.18,5.58-2.07,49.77-16.86,53.85-15.78,4.35-34.82,5.44-43.5-23.95S187.21,418,170.93,414.14l24.23-19.86s16,18.76,22.57,36.72c-.24-1.11-11.32-52.87-2.23-62H295s12.27,34.94,20.68,52.25c6.55,13.44,16.37,45.22,22.7,66.72C344.61,509.17,322.61,527.92,302.69,518.12Z"/><path id="Path_205" data-name="Path 205" class="cls-8" d="M300.42,378.72c-12.27,7.26-66.13,4.3-83.65,3.12L212,381.5c-.51,0,.08-.29.08-.29l.49-4.94,13.06-33.19,69.93-40.55c-1.42,4.27-1.89,10.81-1.77,18.29C294.11,344.86,300.42,378.72,300.42,378.72Z"/><path id="Path_206" data-name="Path 206" class="cls-9" d="M300.42,377.08c-12.27,7.26-66.13,4.3-83.65,3.12l-4.77-.33-.79-.07.87-.22,4.3-1.11,9.25-37,69.93-40.54c-1.42,4.27-1.89,10.81-1.77,18.29C294.11,343.23,300.42,377.08,300.42,377.08Z"/><path id="Path_207" data-name="Path 207" class="cls-8" d="M293.74,319.19c-14.22,3.28-45.52,12.9-57.54,36.14-8,15.47-14.77,22.11-19.47,24.88l-4.77-.33a2.74,2.74,0,0,0,.08-.29l4.3-1.11,9.25-37,69.93-40.54C294.11,305.17,293.63,311.7,293.74,319.19Z"/><path id="Path_208" data-name="Path 208" class="cls-8" d="M51.7,330.83,68,340.62c-1.64.41-3.74,2-6.07,4.29-1.36-4-9.9-9.51-13.79-11.88C50.28,331.62,51.7,330.83,51.7,330.83Z"/><path id="Path_209" data-name="Path 209" class="cls-8" d="M209,380.51a1,1,0,0,1-1.11-.16A3.87,3.87,0,0,0,209,380.51Z"/><path id="Path_210" data-name="Path 210" class="cls-10" d="M246,216s-14.7,1.63-25-9.26c0,0-43.5,12.52-58.23,40.82S47.84,331.38,47.84,331.38s17.42,9.79,15.78,14.69L129.49,308s23.42-16.86,29.92-20.68,42.46-27.21,50.08,36.46,0,56.06,0,56.06,10.89,3.82,26.67-26.67,64.76-37.55,64.76-37.55l2.72-32.1s9.71-21.28,2.23-30.11a19,19,0,0,1-4.36-9.21c-1.24-8.15,0-21.74,17.33-33,26.67-17.42,37-31.56,37-31.56s.55-10.35-15.78-15.25-82.72-31.56-82.72-31.56L255.11,142l52.39,37s-26.12,21.19-46.84,20.68C260.65,199.67,264.5,215.45,246,216Z"/><path id="Path_211" data-name="Path 211" class="cls-8" d="M256.08,190.64a106.3,106.3,0,0,1-3-13.3L224.22,185a31.62,31.62,0,0,1-.66,16.64A31,31,0,0,0,256.08,190.64Z"/><circle id="Ellipse_10" data-name="Ellipse 10" class="cls-6" cx="232.12" cy="170.01" r="31.02"/><path id="Path_213" data-name="Path 213" class="cls-8" d="M265.86,419.81s18,35.38,12.51,46.25"/><path id="Path_221" data-name="Path 221" class="cls-7" d="M248.61,98.37c8.61,1,16.79,4.67,25.26,6.69a12.54,12.54,0,0,0,6.54.24c3.29-1,6-4.46,9.38-4.36,2.1.07,4,1.49,5.69,2.87a70,70,0,0,1,7.81,7c5.84,6.35,9.47,14.89,14.8,21.79s12.93,15,20.51,11.83c-5.15,20.08-21.22,32.63-39.48,33.88-7.28.5-14.74-1-21.79,1.11a18.88,18.88,0,0,1-5.5,1.34c-4.06,0-7.33-3.73-9.86-7.35-5.93-8.52-10.63-18.19-17.31-26-2.23-2.58-4.81-5-7.93-5.49s-6,1-8.77,2.46c-4.58,2.38-9.27,4.83-12.83,8.92s-5.8,10.14-4.33,15.61c.79,3,2.6,5.64,2.63,8.74.07,5-4.3,8.57-5.16,13.38a50.18,50.18,0,0,0-.21,6.09c-.38,6.6-4.7,12-9.2,16.16-1.76,1.61-3.7,3.35-4.22,5.83-.35,1.71,0,3.5-.22,5.23-.66,4.28-4.93,6.46-8.71,7a25.13,25.13,0,0,1-13.07-1.55c5.29-2.5,8.54-9.61,7.32-16-1.68-8.83-10.56-15.18-9.8-24.17a28,28,0,0,1,2.45-8,72.86,72.86,0,0,0,4.19-15.07c.67-4,1-8.21-.26-12-1.11-3.46-3.45-6.21-5.42-9.14a51.94,51.94,0,0,1-6.28-12.86,9,9,0,0,1-.6-4.26A8.79,8.79,0,0,1,167,124c4.85-5.1,10-10.4,16.54-11.86a37.23,37.23,0,0,1,9.39-.36,110.84,110.84,0,0,0,16.32-.69c4.46-.52,12-.46,15.78-3.35,3.52-2.7,5.51-6.09,9.85-7.81a29,29,0,0,1,13.76-1.57Z"/></g><ellipse id="Ellipse_9" data-name="Ellipse 9" class="cls-4" cx="824.96" cy="737.99" rx="44.99" ry="7.61"/><path id="Path_179" data-name="Path 179" class="cls-4" d="M843.49,723.4a13.06,13.06,0,0,0,4.27-6.46c.56-2.55-.54-5.58-3-6.57-2.74-1-5.68.86-7.9,2.78s-4.77,4.12-7.69,3.7a11.69,11.69,0,0,0,3.63-10.94,4.61,4.61,0,0,0-1-2.23c-1.52-1.63-4.29-.94-6.1.36-5.8,4.07-7.42,12-7.45,19-.59-2.55-.09-5.22-.11-7.81s-.72-5.58-2.94-6.95a8.86,8.86,0,0,0-4.46-1c-2.61-.1-5.51.17-7.29,2.07-2.23,2.36-1.63,6.34.29,8.92s4.85,4.25,7.55,6a16.73,16.73,0,0,1,5.38,5.14,4.64,4.64,0,0,1,.4.93h16.3a45.8,45.8,0,0,0,10.13-7Z"/><ellipse id="Ellipse_9-2" data-name="Ellipse 9-2" class="cls-9" cx="213.21" cy="743.93" rx="29.69" ry="5.02"/><path id="Path_179-2" data-name="Path 179-2" class="cls-9" d="M225.49,735.72a8.65,8.65,0,0,0,2.83-4.28,3.81,3.81,0,0,0-2-4.35c-1.82-.69-3.76.57-5.23,1.84s-3.16,2.72-5.09,2.45a7.74,7.74,0,0,0,2.4-7.24,3,3,0,0,0-.67-1.48c-1-1.08-2.84-.62-4,.24-3.84,2.7-4.91,7.92-4.93,12.61-.39-1.69-.06-3.46-.07-5.17s-.48-3.69-2-4.6a5.86,5.86,0,0,0-3-.69c-1.73-.07-3.65.11-4.83,1.37-1.48,1.57-1.08,4.2.19,5.91s3.21,2.81,5,4a11.08,11.08,0,0,1,3.57,3.4,3.08,3.08,0,0,1,.27.61h10.79a30.32,30.32,0,0,0,6.71-4.62Z"/><ellipse id="Ellipse_12" data-name="Ellipse 12" class="cls-9" cx="45.28" cy="743.93" rx="29.69" ry="5.02"/><path id="Path_223" data-name="Path 223" class="cls-9" d="M57.56,735.72a8.65,8.65,0,0,0,2.83-4.28,3.81,3.81,0,0,0-2-4.35c-1.82-.69-3.76.57-5.23,1.84s-3.16,2.72-5.09,2.45a7.74,7.74,0,0,0,2.4-7.24,3,3,0,0,0-.67-1.48c-1-1.08-2.84-.62-4,.24-3.84,2.7-4.91,7.92-4.93,12.61-.39-1.69-.06-3.46-.07-5.17s-.48-3.69-2-4.6a5.86,5.86,0,0,0-3-.69c-1.73-.07-3.65.11-4.83,1.37-1.48,1.57-1.08,4.2.19,5.91s3.21,2.81,5,4a11.08,11.08,0,0,1,3.57,3.4,3.08,3.08,0,0,1,.27.61H50.86a30.32,30.32,0,0,0,6.71-4.62Z"/><rect id="Rectangle_22" data-name="Rectangle 22" class="cls-7" y="746.09" width="902.57" height="1.82"/><path id="Path_177" data-name="Path 177" class="cls-10" d="M858.38,50.52s-93.92-5.67-82.86,60.15c0,0-2.23,11.63,8.34,16.91,0,0,.17-4.87,9.64-3.21a44.06,44.06,0,0,0,10.21.49,21.26,21.26,0,0,0,12.47-5.1h0s26.4-10.91,36.66-54.05c0,0,7.6-9.41,7.29-11.84l-15.85,6.77s5.42,11.43,1.12,20.93c0,0-.51-20.52-3.56-20.08-.61.09-8.23,4-8.23,4s9.31,19.91,2.29,34.39c0,0,2.67-24.54-5.2-33l-11.15,6.51s10.89,20.57,3.5,37.36c0,0,1.89-25.74-5.86-35.77l-10.11,7.89s10.23,20.27,4,34.19c0,0-.81-30-6.18-32.23,0,0-8.85,7.81-10.2,11,0,0,7,14.72,2.65,22.49,0,0-2.67-20-4.85-20.08,0,0-8.81,13.23-9.73,22.31,0,0,.38-13.49,7.6-23.56,0,0-8.52,1.46-13.5,7,0,0,1.37-9.35,15.67-10.17,0,0,7.28-10,9.22-10.64,0,0-14.21-1.2-22.83,2.63,0,0,7.58-8.82,25.44-4.81l10-8.15s-18.72-2.55-26.66.27c0,0,9.14-7.81,29.35-2.12l10.87-6.49s-16-3.44-25.47-2.23c0,0,10-5.41,28.66.46l7.81-3.49s-11.69-2.3-15.11-2.67-3.6-1.3-3.6-1.3a40.55,40.55,0,0,1,22,2.44S858.66,51.56,858.38,50.52Z"/><path id="Path_178" data-name="Path 178" class="cls-10" d="M729.41,15.57S686.89,13,691.86,42.84c0,0-1,5.27,3.78,7.66,0,0,.08-2.24,4.38-1.47a19.59,19.59,0,0,0,4.62.22,9.58,9.58,0,0,0,5.65-2.33h0s12-4.95,16.63-24.51c0,0,3.43-4.26,3.3-5.36L723,20.14s2.45,5.18.53,9.49c0,0-.23-9.3-1.61-9.09-.28,0-3.74,1.8-3.74,1.8s4.23,9,1,15.59c0,0,1.21-11.12-2.36-14.94l-5.06,3s4.93,9.32,1.59,16.93c0,0,.86-11.67-2.65-16.21l-4.58,3.58s4.63,9.19,1.81,15.5c0,0-.38-13.59-2.81-14.61,0,0-4,3.54-4.62,5,0,0,3.18,6.71,1.21,10.19,0,0-1.21-9.05-2.24-9.1,0,0-4,6-4.41,10.07a21.84,21.84,0,0,1,3.45-10.68,12,12,0,0,0-6.12,3.17s.63-4.24,7.11-4.61c0,0,3.36-4.55,4.18-4.83,0,0-6.45-.54-10.35,1.2,0,0,3.43-4,11.53-2.18l4.48-3.69s-8.49-1.13-12.09.12c0,0,4.14-3.54,13.3-1l4.92-2.94s-7.24-1.55-11.55-1c0,0,4.55-2.45,13,.2l3.53-1.58s-5.3-1-6.86-1.21-1.63-.59-1.63-.59a18.34,18.34,0,0,1,10,1.12S729.54,16,729.41,15.57Z"/><path id="Path_224" data-name="Path 224" class="cls-4" d="M73.67,471s-42.52-2.56-37.55,27.27c0,0-1,5.27,3.78,7.66,0,0,.08-2.24,4.38-1.47a19.59,19.59,0,0,0,4.62.22,9.58,9.58,0,0,0,5.65-2.33h0s12-4.95,16.63-24.51c0,0,3.43-4.26,3.3-5.36l-7.18,3.07s2.45,5.18.53,9.49c0,0-.23-9.3-1.61-9.09-.28,0-3.74,1.8-3.74,1.8s4.23,9,1,15.59c0,0,1.21-11.12-2.36-14.94l-5.06,3s4.93,9.32,1.59,16.93c0,0,.86-11.67-2.65-16.21l-4.58,3.58s4.63,9.19,1.81,15.5c0,0-.38-13.59-2.81-14.61,0,0-4,3.54-4.62,5,0,0,3.18,6.71,1.21,10.19,0,0-1.21-9.05-2.24-9.1,0,0-4,6-4.41,10.07a21.84,21.84,0,0,1,3.45-10.68,12,12,0,0,0-6.12,3.17s.63-4.24,7.11-4.61c0,0,3.36-4.55,4.18-4.83,0,0-6.45-.54-10.35,1.2,0,0,3.43-4,11.53-2.18l4.48-3.69s-8.49-1.13-12.09.12c0,0,4.14-3.54,13.3-1l4.92-2.94s-7.24-1.55-11.55-1c0,0,4.55-2.45,13,.2L64.77,475s-5.3-1-6.86-1.21-1.63-.59-1.63-.59a18.34,18.34,0,0,1,10,1.12S73.8,471.47,73.67,471Z"/></g></svg>